<svg width="15" height="15" viewBox="0 0 15 15" fill="none" xmlns="http://www.w3.org/2000/svg">
<path d="M12.5443 1C12.9505 1 13.2891 1.1467 13.5599 1.4401C13.8533 1.71094 14 2.04948 14 2.45573V12.5443C14 12.9505 13.8533 13.3003 13.5599 13.5938C13.2891 13.8646 12.9505 14 12.5443 14H2.45573C2.04948 14 1.69965 13.8646 1.40625 13.5938C1.13542 13.3003 1 12.9505 1 12.5443V2.45573C1 2.04948 1.13542 1.71094 1.40625 1.4401C1.69965 1.1467 2.04948 1 2.45573 1H12.5443ZM5.33333 11.1224V6.04427H3.8776V11.1224H5.33333ZM8.21094 11.1224V3.8776H6.78906V11.1224H8.21094ZM11.1224 11.1224V8.21094H9.66667V11.1224H11.1224Z" fill="#55586F"/>
</svg>
