<svg width="15" height="15" viewBox="0 0 15 15" fill="none" xmlns="http://www.w3.org/2000/svg">
<path d="M8.26032 13.5436V12.9128C9.85637 12.6711 11 11.5436 11 10.0134C11 8.33557 9.85637 7.38255 7.60682 6.95302C6.45063 6.73826 5.93537 6.37584 5.93537 5.8255C5.93537 5.16779 6.51346 4.73825 7.43088 4.73825C8.27289 4.73825 8.97666 5.07383 9.61759 5.63758C9.70557 5.7047 9.79354 5.74497 9.89407 5.74497C10.0197 5.74497 10.1329 5.69128 10.2208 5.58389L10.7235 4.9396C10.7864 4.84564 10.8241 4.75168 10.8241 4.6443C10.8241 4.51007 10.7738 4.38926 10.6732 4.2953C9.94434 3.66443 9.14004 3.2349 8.26032 3.08725V2.45638C8.26032 2.20134 8.07181 2 7.83303 2H6.99102C6.73968 2 6.55117 2.20134 6.55117 2.45638V3.12752C5.1939 3.43624 4.13824 4.4698 4.13824 5.83893C4.13824 7.31544 5.10592 8.32215 6.95332 8.65772C8.52424 8.9396 9.21544 9.27517 9.21544 10.0134C9.21544 10.7919 8.52424 11.2752 7.45601 11.2752C6.5386 11.2752 5.9228 10.9664 5.21903 10.3356C5.13106 10.2685 5.03052 10.2282 4.92998 10.2282C4.5781 10.2282 4 11.1007 4 11.3154C4 11.4497 4.06284 11.5973 4.16338 11.6913C4.80431 12.3356 5.58348 12.7651 6.55117 12.9128V13.5436C6.55117 13.7852 6.73968 14 6.99102 14H7.83303C8.07181 14 8.26032 13.7852 8.26032 13.5436Z" fill="#55586F"/>
</svg>
