<svg width="15" height="15" viewBox="0 0 15 15" fill="none" xmlns="http://www.w3.org/2000/svg">
<path d="M10.0313 7.54567L6.0625 11.4122L3.9375 9.34192L4.65625 8.64169L6.0625 10.0117L9.3125 6.84543L10.0313 7.54567ZM11.6563 2.30913C12.0313 2.30913 12.3438 2.44106 12.5938 2.70492C12.8646 2.94848 13 3.25293 13 3.61827V12.6909C13 13.0562 12.8646 13.3708 12.5938 13.6347C12.3438 13.8782 12.0313 14 11.6563 14H2.34375C1.96875 14 1.64583 13.8782 1.375 13.6347C1.125 13.3708 1 13.0562 1 12.6909V3.61827C1 3.25293 1.125 2.94848 1.375 2.70492C1.64583 2.44106 1.96875 2.30913 2.34375 2.30913H3V1H4.34375V2.30913H9.65625V1H11V2.30913H11.6563ZM11.6563 12.6909V5.56674H2.34375V12.6909H11.6563Z" fill="#55586F"/>
</svg>
