<svg width="7" height="9" viewBox="0 0 7 9" fill="none" xmlns="http://www.w3.org/2000/svg">
<path d="M6.17643 3.05547H5.79029V2.2777C5.79029 1.20436 4.92533 0.333252 3.85958 0.333252C2.79383 0.333252 1.92887 1.20436 1.92887 2.2777V3.05547H1.54273C1.11797 3.05547 0.770447 3.40547 0.770447 3.83325V7.72214C0.770447 8.14992 1.11797 8.49992 1.54273 8.49992H6.17643C6.60119 8.49992 6.94872 8.14992 6.94872 7.72214V3.83325C6.94872 3.40547 6.60119 3.05547 6.17643 3.05547ZM3.85958 6.55547C3.43483 6.55547 3.0873 6.20547 3.0873 5.7777C3.0873 5.34992 3.43483 4.99992 3.85958 4.99992C4.28434 4.99992 4.63187 5.34992 4.63187 5.7777C4.63187 6.20547 4.28434 6.55547 3.85958 6.55547ZM5.05662 3.05547H2.66254V2.2777C2.66254 1.6127 3.19928 1.07214 3.85958 1.07214C4.51989 1.07214 5.05662 1.6127 5.05662 2.2777V3.05547Z" fill="#55586F"/>
</svg>
