<svg width="18" height="18" viewBox="0 0 18 18" fill="none" xmlns="http://www.w3.org/2000/svg">
<circle cx="9" cy="9" r="9" fill="#EDEEF0"/>
<path fill-rule="evenodd" clip-rule="evenodd" d="M14.4226 13.7372C13.7956 13.7721 13.2034 13.2147 13.2034 12.518C13.2034 11.8212 13.7607 11.2987 14.4226 11.2987C15.0845 11.2987 15.6419 11.8561 15.6419 12.518C15.6419 13.1798 15.0845 13.7721 14.4226 13.7372Z" fill="#489DD5"/>
<path d="M11.0783 8.44217C11.0086 8.40734 10.9389 8.3725 10.8693 8.30283C10.9041 8.268 10.9738 8.23316 11.0086 8.19832C11.1828 8.05898 11.3221 7.91963 11.4615 7.74545C11.8447 7.22292 11.984 6.66554 11.9492 6.03849C11.9144 5.13276 11.4963 4.47087 10.6951 4.01801C10.1377 3.70448 9.54551 3.59998 8.91846 3.59998C8.0824 3.59998 7.28117 3.59998 6.4451 3.59998C6.09674 3.59998 5.85289 3.73932 5.60904 4.01801C5.50453 4.15735 5.43486 4.33153 5.40002 4.50571C5.40002 7.53644 5.40002 10.602 5.40002 13.6327C5.43486 13.6327 5.4697 13.6327 5.50453 13.6327C6.65412 13.6327 7.80371 13.6327 8.91846 13.6327C9.40616 13.6327 9.89386 13.5631 10.3467 13.3889C11.0435 13.145 11.6008 12.7618 11.9492 12.1C12.2975 11.4729 12.4021 10.7762 12.2279 10.0446C12.1234 9.34791 11.7402 8.79053 11.0783 8.44217ZM7.316 6.70038C7.35084 6.70038 7.35084 6.70038 7.316 6.70038C7.316 6.42169 7.316 6.143 7.316 5.86431C7.316 5.48112 7.52502 5.2721 7.90821 5.23727C8.29141 5.20243 8.67461 5.20243 9.0578 5.2721C9.54551 5.34178 9.85903 5.6553 9.9287 6.10816C9.99837 6.5262 9.96354 6.90939 9.68485 7.25775C9.47583 7.53644 9.16231 7.64095 8.84878 7.64095C8.36108 7.64095 7.87338 7.64095 7.38567 7.64095C7.316 7.64095 7.316 7.60611 7.316 7.57127C7.35084 7.29259 7.316 6.97906 7.316 6.70038ZM10.068 11.4729C9.82419 11.7864 9.47584 11.9258 9.09264 11.9258C8.53526 11.9258 7.94305 11.9258 7.38567 11.9258C7.316 11.9258 7.316 11.8909 7.316 11.8561C7.316 11.5077 7.316 11.1594 7.316 10.811C7.316 10.4975 7.316 10.1491 7.316 9.83561C7.316 9.41758 7.55986 9.20857 7.94305 9.20857C8.29141 9.20857 8.6746 9.20857 9.02296 9.20857C9.47583 9.20857 9.85903 9.38275 10.1377 9.80078C10.4512 10.2536 10.4164 11.02 10.068 11.4729Z" fill="#004582"/>
</svg>
