<svg width="15" height="15" viewBox="0 0 15 15" fill="none" xmlns="http://www.w3.org/2000/svg">
<path d="M12.7463 1C13.0846 1 13.3731 1.13224 13.6119 1.39671C13.8706 1.64085 14 1.93584 14 2.28169V10.0939C14 10.4601 13.8706 10.7754 13.6119 11.0399C13.3731 11.284 13.0846 11.4061 12.7463 11.4061H8.26866L9.55224 13.3592V14H4.44776V13.3592L5.73134 11.4061H1.28358C0.925373 11.4061 0.616915 11.284 0.358209 11.0399C0.119403 10.7754 0 10.4601 0 10.0939V2.28169C0 1.93584 0.119403 1.64085 0.358209 1.39671C0.616915 1.13224 0.925373 1 1.28358 1H12.7463ZM12.7463 8.81221V2.28169H1.28358V8.81221H12.7463Z" fill="#55586F"/>
</svg>
