<svg width="18" height="18" viewBox="0 0 18 18" fill="none" xmlns="http://www.w3.org/2000/svg">
<circle cx="9" cy="9" r="9" fill="#EDEEF0"/>
<path fill-rule="evenodd" clip-rule="evenodd" d="M13.8816 10.5311C13.9896 10.7949 14.059 11.0757 14.0623 11.3601C14.067 11.6378 14.0142 11.9136 13.907 12.1714C13.7404 12.5711 13.451 12.9125 13.0773 13.1503C12.6547 13.4194 12.1331 13.5392 11.6297 13.4887C11.1661 13.4466 10.7254 13.2698 10.3389 13.0257C9.93871 12.7749 9.592 12.4551 9.26805 12.1198C8.91965 12.4788 8.54548 12.8216 8.10798 13.0794C7.7158 13.3128 7.26883 13.4727 6.80529 13.4963C6.45826 13.5153 6.11139 13.4564 5.79225 13.3241C5.384 13.1552 5.03375 12.8628 4.80042 12.4999C4.52972 12.0821 4.41855 11.5714 4.49607 11.0849C4.53792 10.7967 4.64909 10.5238 4.77201 10.2598C5.06841 9.62617 5.37656 8.99767 5.68733 8.37022C6.20868 7.32174 6.74653 6.28091 7.3007 5.24807C7.32145 5.20953 7.34213 5.17095 7.36282 5.13236C7.45578 4.95898 7.5488 4.78546 7.64783 4.6151C7.76517 4.41428 7.9006 4.2202 8.0756 4.06103C8.37048 3.78504 8.77162 3.61946 9.18257 3.59998H9.36637C9.76557 3.62384 10.1545 3.78204 10.4444 4.04739C10.6261 4.20908 10.7664 4.40795 10.887 4.61453C10.9832 4.78062 11.0739 4.94955 11.1646 5.11847C11.1895 5.16494 11.2145 5.2114 11.2395 5.25781C12.0654 6.79724 12.8547 8.3545 13.6069 9.92837C13.6203 9.95657 13.6337 9.98476 13.6471 10.013C13.7285 10.1843 13.81 10.3557 13.8816 10.5311ZM8.93857 10.7463C9.04442 10.8916 9.15055 11.0373 9.27016 11.1725C9.64154 10.7126 9.98495 10.2225 10.2019 9.67569C10.3168 9.38104 10.3916 9.06374 10.354 8.74782C10.3252 8.51015 10.211 8.2789 10.0198 8.12248C9.64197 7.80908 9.04765 7.78116 8.63069 8.03953C8.4557 8.14659 8.31756 8.30861 8.2457 8.49563C8.16538 8.69506 8.15921 8.91422 8.185 9.12429C8.22033 9.38907 8.31088 9.64403 8.42365 9.88689C8.56129 10.1796 8.7324 10.4566 8.92058 10.7217C8.92658 10.7299 8.93258 10.7381 8.93857 10.7463ZM12.6317 12.7205C12.9821 12.5344 13.2499 12.2118 13.3613 11.8425C13.4435 11.5722 13.4409 11.2797 13.3617 11.0088C13.3062 10.821 13.2228 10.6428 13.1396 10.465C13.1255 10.4349 13.1114 10.4047 13.0975 10.3746C12.4603 9.03486 11.7956 7.70735 11.1038 6.39282L11.085 6.357C10.8489 5.90917 10.6126 5.46101 10.3669 5.01787C10.2553 4.81786 10.131 4.61721 9.94707 4.47053C9.76083 4.32028 9.51879 4.23416 9.27532 4.23692C9.03839 4.23275 8.80715 4.30676 8.62021 4.44659C8.44733 4.57273 8.325 4.74911 8.21983 4.92874C8.11338 5.11296 8.01305 5.30045 7.91274 5.48791C7.89163 5.52735 7.87053 5.56679 7.84937 5.60619C7.03313 7.12943 6.25265 8.67008 5.50853 10.227C5.48799 10.2708 5.46717 10.3146 5.44635 10.3584C5.35853 10.5431 5.27059 10.728 5.20232 10.9203C5.10079 11.2077 5.08185 11.5245 5.16724 11.8179C5.27892 12.2174 5.57498 12.5649 5.96057 12.7494C6.28977 12.9093 6.67705 12.9478 7.03601 12.8704C7.48001 12.7782 7.87194 12.5359 8.2145 12.2576C8.43543 12.0762 8.6419 11.8792 8.83215 11.6683C8.41021 11.1682 8.02817 10.629 7.76787 10.0334C7.59279 9.62577 7.47705 9.18338 7.5167 8.73995C7.54249 8.43207 7.65366 8.12849 7.84869 7.88157C8.07027 7.59836 8.39364 7.39406 8.7477 7.29787C9.12314 7.19511 9.53223 7.20639 9.90024 7.33261C10.2942 7.46573 10.6379 7.7409 10.8297 8.09911C10.9762 8.36721 11.0352 8.67388 11.0263 8.97502C11.0106 9.44963 10.845 9.90694 10.627 10.329C10.3773 10.811 10.0504 11.2519 9.70334 11.6734C9.92315 11.905 10.1526 12.1296 10.4074 12.3262C10.7541 12.5944 11.1542 12.8216 11.6002 12.8883C11.9503 12.9444 12.3211 12.8873 12.6317 12.7205Z" fill="#FF5A5F"/>
</svg>
