<svg width="18" height="18" viewBox="0 0 18 18" fill="none" xmlns="http://www.w3.org/2000/svg">
<circle cx="9" cy="9" r="9" fill="#EDEEF0"/>
<path d="M12.694 5.40002C12.9115 5.40002 13.097 5.48242 13.2505 5.64721C13.4168 5.79932 13.5 5.98312 13.5 6.19862V11.0662C13.5 11.2944 13.4168 11.4909 13.2505 11.6557C13.097 11.8078 12.9115 11.8838 12.694 11.8838H9.81557L10.6407 13.1007V13.5H7.35928V13.1007L8.18443 11.8838H5.32516C5.09488 11.8838 4.89659 11.8078 4.73028 11.6557C4.57676 11.4909 4.5 11.2944 4.5 11.0662V6.19862C4.5 5.98312 4.57676 5.79932 4.73028 5.64721C4.89659 5.48242 5.09488 5.40002 5.32516 5.40002H12.694ZM12.694 10.2676V6.19862H5.32516V10.2676H12.694Z" fill="#43455C"/>
</svg>
